<?xml version="1.0" encoding="UTF-8"?><svg id="Layer_1" xmlns="http://www.w3.org/2000/svg" viewBox="0 0 800 200"><defs><style>.cls-1{fill:#e67d7d;}.cls-2{fill:#996b6b;}.cls-3{fill:#99a9ff;}.cls-4{fill:#806f4c;}.cls-5{fill:#b3b36b;}.cls-6{fill:#8fccb8;}.cls-7{fill:#aecc8f;}.cls-8{fill:#b39b6b;}.cls-9{fill:#d977b7;}.cls-10{fill:#ccb1a3;}.cls-11{fill:#d9d282;}.cls-12{fill:#d9916d;}.cls-13{fill:#c689e6;}.cls-14{fill:#1c282e;}.cls-15{fill:#3d5866;}.cls-16{fill:#70bccc;}.cls-17{fill:#95a69e;}.cls-18{fill:#99857a;}.cls-19{fill:#85cc85;}.cls-20{fill:#518c83;}.cls-21{fill:#517373;}</style></defs><rect class="cls-14" x="0" width="800" height="200"/><path class="cls-17" d="m250.41,51.3v97.4h85.4V51.3h-85.4Zm84,96h-82.6V52.7h82.6v94.6Z"/><path class="cls-17" d="m410.01,84.7h35v-32h3.78v-1.4h-8.96v1.4h3.78v30.6h-32.2v-30.6h3.78v-1.4h-8.96v1.4h3.78v32Z"/><polygon class="cls-17" points="461.81 52.7 477.21 52.7 477.21 83.3 473.43 83.3 473.43 84.7 482.39 84.7 482.39 83.3 478.61 83.3 478.61 52.7 494.01 52.7 494.01 62.78 495.41 62.78 495.41 51.3 460.41 51.3 460.41 62.78 461.81 62.78 461.81 52.7"/><polygon class="cls-17" points="540.63 51.3 540.63 52.7 544.41 52.7 544.41 83.3 512.21 83.3 512.21 52.7 515.99 52.7 515.99 51.3 507.03 51.3 507.03 52.7 510.81 52.7 510.81 84.7 545.81 84.7 545.81 52.7 549.59 52.7 549.59 51.3 540.63 51.3"/><polygon class="cls-17" points="288.2 74.72 283.37 61.56 281.2 61.56 286.03 74.72 288.2 74.72"/><polygon class="cls-17" points="296.6 74.72 291.77 61.56 289.6 61.56 294.43 74.72 296.6 74.72"/><path class="cls-17" d="m285.45,80.7c.44-.59,1.06-.99,1.85-1.18v-2.1c-2.61.65-4.67,2.7-4.62,5.46,0,0,0,2.53,0,2.53,0,2.87,1.84,4.7,4.62,5.45v-2.13c-1.59-.36-2.53-1.69-2.52-3.32.05-1.32-.27-3.67.67-4.71Z"/><path class="cls-17" d="m291.75,82.71c-1.67,1.92.81,4.4,2.73,2.73,1.67-1.92-.81-4.4-2.73-2.73Z"/><path class="cls-17" d="m304.73,83.57l-6.44-2.91v1.92c.79.3,4.15,1.96,4.94,2-.77.06-4.17,1.72-4.94,2.02v1.9l6.44-2.93v-2Z"/><path class="cls-17" d="m364.79,83.3h-3.78v-14.6h33.6v-17.4h-35v32h-3.78v1.4h8.96v-1.4Zm-3.78-30.6h32.2v14.6h-32.2v-14.6Z"/><polygon class="cls-17" points="281.21 106.72 283.38 106.72 288.21 93.56 286.04 93.56 281.21 106.72"/><polygon class="cls-17" points="289.61 106.72 291.78 106.72 296.61 93.56 294.44 93.56 289.61 106.72"/><path class="cls-17" d="m300.77,103.56c-.45.59-1.06.98-1.85,1.17v2.13c2.78-.74,4.62-2.58,4.62-5.45,0,0,0-2.53,0-2.53.04-2.76-2-4.81-4.62-5.46v2.1c1.61.39,2.53,1.7,2.52,3.36-.05,1.32.28,3.64-.67,4.68Z"/><rect class="cls-17" x="355.83" y="99.3" width="193.76" height="1.4"/><rect class="cls-17" x="265.67" y="115.58" width="4.48" height="1.96"/><rect class="cls-17" x="274.07" y="115.58" width="4.48" height="1.96"/><rect class="cls-17" x="282.47" y="115.58" width="4.48" height="1.96"/><polygon class="cls-17" points="294.16 113.2 292.06 113.2 292.06 115.58 289.68 115.58 289.68 117.54 292.06 117.54 292.06 119.92 294.16 119.92 294.16 117.54 296.54 117.54 296.54 115.58 294.16 115.58 294.16 113.2"/><polygon class="cls-17" points="302.56 113.2 300.46 113.2 300.46 115.58 298.08 115.58 298.08 117.54 300.46 117.54 300.46 119.92 302.56 119.92 302.56 117.54 304.94 117.54 304.94 115.58 302.56 115.58 302.56 113.2"/><rect class="cls-17" x="307.67" y="115.58" width="4.48" height="1.96"/><rect class="cls-17" x="316.07" y="115.58" width="4.48" height="1.96"/><polygon class="cls-17" points="490.23 116.7 494.01 116.7 494.01 131.3 461.81 131.3 461.81 116.7 465.59 116.7 465.59 115.3 456.63 115.3 456.63 116.7 460.41 116.7 460.41 132.7 477.21 132.7 477.21 147.3 473.43 147.3 473.43 148.7 482.39 148.7 482.39 147.3 478.61 147.3 478.61 132.7 495.41 132.7 495.41 116.7 499.19 116.7 499.19 115.3 490.23 115.3 490.23 116.7"/><path class="cls-17" d="m510.81,115.3v33.4h35v-33.4h-35Zm33.6,6.2v25.8h-32.2v-30.6h32.2v4.8Z"/><rect class="cls-17" x="283.66" y="125.56" width="2.1" height="13.16"/><rect class="cls-17" x="292.06" y="125.56" width="2.1" height="13.16"/><polygon class="cls-17" points="394.61 115.3 359.61 115.3 359.61 147.3 355.83 147.3 355.83 148.7 364.79 148.7 364.79 147.3 361.01 147.3 361.01 116.7 376.41 116.7 376.41 132.7 377.81 132.7 377.81 116.7 393.21 116.7 393.21 147.3 389.43 147.3 389.43 148.7 398.39 148.7 398.39 147.3 394.61 147.3 394.61 115.3"/><path class="cls-17" d="m445.01,115.3h-35v32h-3.78v1.4h8.96v-1.4h-3.78v-14.6h32.2v14.6h-3.78v1.4h8.96v-1.4h-3.78v-32Zm-1.4,16h-32.2v-14.6h32.2v14.6Z"/><rect class="cls-1" x="0" width="80.02" height="6"/><rect class="cls-12" x="80.02" width="80.02" height="6"/><rect class="cls-11" x="160.05" width="80.02" height="6"/><rect class="cls-7" x="240.07" width="80.02" height="6"/><rect class="cls-19" x="320.09" width="80.02" height="6"/><rect class="cls-6" x="400.11" width="80.02" height="6"/><rect class="cls-16" x="480.14" width="80.02" height="6"/><rect class="cls-3" x="560.16" width="80.02" height="6"/><rect class="cls-13" x="639.95" width="80.02" height="6"/><rect class="cls-9" x="719.98" width="80.02" height="6"/><rect class="cls-10" x="400" y="194" width="80" height="6"/><rect class="cls-17" x="480" y="194" width="80" height="6"/><rect class="cls-8" x="240" y="194" width="80" height="6"/><rect class="cls-5" x="320" y="194" width="80" height="6"/><rect class="cls-18" x="160" y="194" width="80" height="6"/><rect class="cls-2" x="80" y="194" width="80" height="6"/><rect class="cls-4" y="194" width="80" height="6"/><rect class="cls-20" x="560" y="194" width="80" height="6"/><rect class="cls-21" x="640" y="194" width="80" height="6"/><rect class="cls-15" x="720" y="194" width="80" height="6"/></svg>